<svg class="svg-inline--fa" xmlns="http://www.w3.org/2000/svg" x="0px" y="0px" width="50" height="50" viewBox="0 0 172 172" style="fill: rgb(0, 0, 0);"><g fill="none" fill-rule="nonzero" stroke="none" stroke-width="1" stroke-linecap="butt" stroke-linejoin="miter" stroke-miterlimit="10" stroke-dasharray="" stroke-dashoffset="0" font-family="none" font-weight="none" font-size="none" text-anchor="none" style="mix-blend-mode: normal;"><path d="M0,172v-172h172v172z" fill="none"></path><g><rect x="6" y="6" transform="scale(3.58333,3.58333)" width="36" height="36" fill="#1976d2"></rect><path d="M98.50583,78.83333h-47.52575v11.696h17.04592v52.804h13.50558v-52.804h16.97425z" fill="#ffffff"></path><path d="M140.44517,93.46767c0,0 -6.40342,-4.27133 -13.64175,-4.27133c-7.23833,0 -9.84342,3.44 -9.84342,7.1165c0,9.48867 26.44858,8.53908 26.44858,27.63467c0,29.41558 -40.32683,16.36867 -40.32683,16.36867v-14.11117c0,0 7.71133,5.81217 16.95992,5.81217c9.24858,0 8.89742,-6.04867 8.89742,-6.88c0,-8.77558 -26.21208,-8.77558 -26.21208,-28.2295c0,-26.44858 38.19117,-16.01392 38.19117,-16.01392z" fill="#ffffff"></path></g></g></svg>